<svg width="522" height="488" viewBox="0 0 522 488" fill="none" xmlns="http://www.w3.org/2000/svg">
<path fill-rule="evenodd" clip-rule="evenodd" d="M34.537 452.557H487.337V384.131C436.419 410.733 432.837 400.76 382.777 375.174C318.308 408.139 325.414 408.127 260.937 375.174C196.476 408.139 203.578 408.127 139.107 375.174C89.025 400.779 85.474 410.717 34.547 384.123V452.553L34.537 452.557ZM73.158 221.037H113.181V56.617L145.04 0L176.895 56.617V86.09H342.375V57.512L374.234 0.887001L406.093 57.512V221.032H446.101V248.118H406.093V275.098H487.937V321.114H411.835V351.634C449.581 371.806 440.897 368.646 495.483 341.243C506.799 334.212 521.862 342.255 521.862 355.915V469.825C521.862 479.348 514.124 487.087 504.592 487.087H17.262C7.73859 487.087 0 479.349 0 469.825V358.795C0 344.897 10.914 333.514 24.949 340.533C78.558 367.326 71.699 372.103 107.422 353.092V321.112H31.32V275.096H113.179V248.116H73.156V221.03L73.158 221.037ZM176.898 221.037H342.378V127.685H176.898V221.037ZM342.378 248.123H176.898V275.103H342.378V248.123ZM340.019 358.873C328.265 338.475 306.226 324.67 281.105 324.67H238.179C213.468 324.67 191.761 338.025 179.855 357.865C203.957 370.318 204.617 365.709 251.105 341.619C256.858 338.662 262.011 337.221 268.625 340.529C315.598 363.998 316.008 370.697 340.02 358.869L340.019 358.873ZM189.289 102.363H329.989V110.875H189.289V102.363Z" fill="white"/>
</svg>
