<svg width="595" height="307" viewBox="0 0 595 307" fill="none" xmlns="http://www.w3.org/2000/svg">
<path fill-rule="evenodd" clip-rule="evenodd" d="M17.6701 277.725H249.336V237.548C223.285 253.168 221.452 247.312 195.84 232.289C162.856 251.645 166.491 251.638 133.503 232.289C100.523 251.645 104.157 251.638 71.1712 232.289C45.5478 247.323 43.731 253.158 17.6753 237.543V277.723L17.6701 277.725ZM37.4298 141.785H57.9067V45.2435L74.2067 12L90.5047 45.2435V62.549H175.169V45.769L191.469 12.5208L207.769 45.769V141.782H228.238V157.686H207.769V173.528H249.643V200.547H210.707V218.467C230.019 230.311 225.576 228.456 253.504 212.366C259.293 208.237 267 212.96 267 220.981V287.864C267 293.456 263.041 298 258.164 298H8.83175C3.95929 298 0 293.456 0 287.864V222.672C0 214.511 5.58392 207.827 12.7646 211.949C40.1926 227.681 36.6833 230.486 54.9603 219.323V200.545H16.0242V173.527H57.9057V157.685H37.4288V141.781L37.4298 141.785ZM90.5062 141.785H175.171V86.972H90.5062V141.785ZM175.171 157.689H90.5062V173.531H175.171V157.689ZM173.964 222.717C167.95 210.74 156.674 202.635 143.821 202.635H121.859C109.216 202.635 98.1104 210.476 92.0189 222.125C104.35 229.437 104.688 226.731 128.473 212.586C131.416 210.85 134.052 210.004 137.436 211.947C161.469 225.727 161.679 229.66 173.964 222.715L173.964 222.717ZM96.8456 72.1039H168.832V77.1016H96.8456V72.1039Z" fill="white"/>
<path d="M342.784 146.544C339.541 146.544 336.171 145.819 332.672 144.368C329.259 143.003 326.827 140.784 325.376 137.712C324.779 136.603 324.395 135.408 324.224 134.128C324.139 132.933 324.096 131.739 324.096 130.544V129.136C324.096 128.453 324.181 127.813 324.352 127.216C324.523 126.704 324.949 126.448 325.632 126.448C325.803 126.448 325.888 126.533 325.888 126.704C325.888 127.216 325.845 127.728 325.76 128.24C325.675 128.752 325.632 129.307 325.632 129.904C325.632 133.829 326.869 136.816 329.344 138.864C331.904 140.912 335.061 141.936 338.816 141.936C344.192 141.936 349.141 140.613 353.664 137.968C358.187 135.323 362.283 131.696 365.952 127.088C369.536 122.651 372.437 118.299 374.656 114.032C376.96 109.851 378.965 105.584 380.672 101.232C382.379 96.88 384.128 92.4 385.92 87.792C383.701 91.12 380.629 94.192 376.704 97.008C372.779 99.7387 368.512 101.915 363.904 103.536C359.381 105.243 354.987 106.096 350.72 106.096C346.197 106.096 341.931 105.285 337.92 103.664C333.995 102.128 330.837 99.7813 328.448 96.624C326.059 93.4667 324.864 89.4987 324.864 84.72C324.864 79.1733 325.931 73.7547 328.064 68.464C330.197 63.1733 333.056 58.2667 336.64 53.744C340.224 49.136 344.235 45.168 348.672 41.84C352.597 38.8533 357.12 36.4213 362.24 34.544C367.445 32.6667 372.608 31.728 377.728 31.728C379.861 31.728 381.867 31.8987 383.744 32.24C385.621 32.496 387.541 33.0933 389.504 34.032C391.211 34.8 392.576 35.7813 393.6 36.976C394.624 38.0853 395.136 39.3653 395.136 40.816C395.136 40.9867 395.136 41.2 395.136 41.456C395.136 41.712 395.093 41.9253 395.008 42.096C394.667 43.4613 393.856 45.04 392.576 46.832C391.381 48.5387 390.443 50.3307 389.76 52.208C389.675 52.5493 389.205 52.848 388.352 53.104C387.499 53.2747 387.157 53.1893 387.328 52.848C388.011 51.7387 388.523 50.3733 388.864 48.752C389.291 47.1307 389.504 45.5093 389.504 43.888C389.504 42.6933 389.376 41.584 389.12 40.56C388.949 39.4507 388.608 38.512 388.096 37.744C387.243 36.208 385.92 35.1413 384.128 34.544C382.336 33.9467 380.416 33.648 378.368 33.648C376.405 33.648 374.443 33.8613 372.48 34.288C370.517 34.7147 368.811 35.184 367.36 35.696C362.411 37.488 357.675 40.304 353.152 44.144C349.141 47.6427 345.557 51.696 342.4 56.304C339.328 60.912 336.896 65.648 335.104 70.512C333.312 75.376 332.416 80.0267 332.416 84.464C332.416 88.9867 333.269 92.656 334.976 95.472C336.768 98.288 339.115 100.379 342.016 101.744C344.917 103.024 348.032 103.664 351.36 103.664C358.272 103.664 364.331 102.085 369.536 98.928C374.827 95.6853 379.307 91.4613 382.976 86.256C386.645 81.0507 389.461 75.4613 391.424 69.488H378.24C377.216 69.488 375.808 69.5733 374.016 69.744C372.224 69.8293 370.389 70.128 368.512 70.64C366.635 71.0667 365.056 71.792 363.776 72.816C362.496 73.84 361.856 75.248 361.856 77.04C361.856 77.6373 361.941 78.2773 362.112 78.96C362.283 79.5573 362.411 80.0267 362.496 80.368L361.344 81.136C360.747 80.0267 360.021 78.8747 359.168 77.68C358.4 76.4 357.973 75.376 357.888 74.608C357.803 73.9253 357.845 73.0293 358.016 71.92C358.187 70.8107 358.741 69.8293 359.68 68.976C360.704 68.0373 362.155 67.44 364.032 67.184C365.995 66.8427 368 66.672 370.048 66.672C371.925 66.672 373.717 66.7573 375.424 66.928C377.131 67.0133 378.496 67.056 379.52 67.056H403.84L402.432 68.592C401.237 68.592 399.915 68.8053 398.464 69.232C397.013 69.5733 395.819 70.3413 394.88 71.536C393.003 73.9253 391.552 76.6133 390.528 79.6C389.589 82.5867 388.608 85.744 387.584 89.072C385.877 95.1307 384.213 101.061 382.592 106.864C380.971 112.752 378.795 118.299 376.064 123.504C373.419 128.795 369.536 133.659 364.416 138.096C361.685 140.4 358.272 142.363 354.176 143.984C350.08 145.691 346.283 146.544 342.784 146.544ZM400.15 102.256C398.785 102.256 397.547 102 396.438 101.488C395.414 100.891 394.902 99.6533 394.902 97.776C394.902 94.7893 395.67 91.8027 397.206 88.816C398.742 85.744 400.321 83.056 401.942 80.752C403.393 78.7893 405.014 76.9547 406.806 75.248C408.683 73.456 410.689 71.92 412.822 70.64C414.187 69.7867 416.022 68.8907 418.326 67.952C420.715 66.928 422.721 66.416 424.342 66.416C425.707 66.416 426.902 66.8 427.926 67.568C428.95 68.2507 429.462 69.5307 429.462 71.408C429.462 74.3093 428.694 77.296 427.158 80.368C425.707 83.3547 424.171 86 422.55 88.304C421.782 89.328 421.014 90.3093 420.246 91.248C419.478 92.1013 418.625 92.9973 417.686 93.936C420.843 93.936 423.745 93.04 426.39 91.248C429.035 89.3707 431.339 87.1093 433.302 84.464L433.558 84.208C433.814 84.208 433.942 84.464 433.942 84.976C433.942 85.5733 433.771 86.128 433.43 86.64C431.723 89.0293 429.59 91.1627 427.03 93.04C424.47 94.832 421.569 95.728 418.326 95.728C417.985 95.728 417.643 95.728 417.302 95.728C416.961 95.728 416.619 95.6853 416.278 95.6C411.499 100.037 406.123 102.256 400.15 102.256ZM403.478 100.08C404.673 100.08 405.953 99.6533 407.318 98.8C408.769 97.9467 409.878 97.136 410.646 96.368C412.097 94.9173 413.419 93.3813 414.614 91.76C415.809 90.0533 416.918 88.3467 417.942 86.64C419.137 84.592 420.331 82.16 421.526 79.344C422.721 76.528 423.318 73.8827 423.318 71.408C423.318 69.4453 422.635 68.464 421.27 68.464C420.161 68.464 418.795 68.9333 417.174 69.872C415.638 70.8107 414.486 71.664 413.718 72.432C410.817 75.4187 408.385 78.6613 406.422 82.16C405.313 84.1227 404.118 86.4267 402.838 89.072C401.558 91.7173 400.918 94.1493 400.918 96.368C400.918 96.7093 400.918 97.0507 400.918 97.392C401.003 97.648 401.089 97.9467 401.174 98.288C401.515 99.4827 402.283 100.08 403.478 100.08ZM440.425 102.256C437.865 102.256 436.116 101.659 435.177 100.464C434.238 99.184 433.769 97.648 433.769 95.856C433.769 93.4667 434.281 90.9067 435.305 88.176C436.414 85.4453 437.31 83.312 437.993 81.776C436.884 82.9707 435.817 84.1227 434.793 85.232C433.769 86.3413 433.044 87.152 432.617 87.664C432.361 88.0053 432.148 88.176 431.977 88.176C431.806 88.176 431.721 87.9627 431.721 87.536C431.721 86.8533 431.934 86.2133 432.361 85.616C433.556 84.08 434.921 82.4587 436.457 80.752C437.993 79.0453 439.486 77.2533 440.937 75.376C442.644 72.2187 444.521 68.5493 446.569 64.368C448.702 60.1013 450.878 55.7493 453.097 51.312C455.401 46.7893 457.62 42.6507 459.753 38.896C461.972 35.056 463.934 31.984 465.641 29.68C467.092 29.0827 468.457 28.3147 469.737 27.376C471.102 26.4373 472.425 25.584 473.705 24.816C475.07 23.9627 476.478 23.536 477.929 23.536C478.868 23.536 479.55 23.792 479.977 24.304C480.489 24.816 480.83 25.4133 481.001 26.096C481.086 26.352 481.129 26.8213 481.129 27.504C481.129 29.4667 480.446 31.856 479.081 34.672C477.801 37.488 476.265 40.2613 474.473 42.992C472.766 45.6373 471.273 47.8133 469.993 49.52C466.58 54.2987 463.081 58.6507 459.497 62.576C455.913 66.416 452.67 69.6587 449.769 72.304C446.953 74.864 444.905 76.7413 443.625 77.936C443.028 79.0453 442.302 80.5387 441.449 82.416C440.681 84.208 439.998 86.128 439.401 88.176C438.804 90.1387 438.505 91.9733 438.505 93.68C438.505 95.1307 438.846 96.368 439.529 97.392C440.212 98.3307 441.364 98.8 442.985 98.8C443.241 98.8 443.497 98.8 443.753 98.8C444.009 98.8 444.308 98.7573 444.649 98.672C446.1 98.416 447.678 97.6053 449.385 96.24C451.092 94.8747 452.798 93.296 454.505 91.504C456.212 89.712 457.748 88.0053 459.113 86.384C459.71 85.7013 460.265 85.0613 460.777 84.464C461.289 83.7813 461.63 83.312 461.801 83.056C462.398 83.6533 462.356 84.4213 461.673 85.36C461.076 86.2133 460.564 86.9387 460.137 87.536C459.54 88.304 458.686 89.3707 457.577 90.736C456.468 92.016 455.188 93.424 453.737 94.96C452.116 96.5813 450.11 98.2027 447.721 99.824C445.332 101.445 442.9 102.256 440.425 102.256ZM445.801 72.816C448.446 70.5973 451.774 67.44 455.785 63.344C459.881 59.1627 463.892 54.128 467.817 48.24C468.244 47.5573 468.926 46.4053 469.865 44.784C470.889 43.1627 471.913 41.328 472.937 39.28C474.046 37.1467 474.985 35.0987 475.753 33.136C476.521 31.088 476.905 29.3387 476.905 27.888C476.905 26.5227 476.521 25.84 475.753 25.84C474.814 25.84 473.577 26.6507 472.041 28.272C470.249 30.1493 468.201 32.9227 465.897 36.592C463.678 40.176 461.332 44.1867 458.857 48.624C456.382 53.0613 453.993 57.4133 451.689 61.68C449.47 65.9467 447.508 69.6587 445.801 72.816ZM476.76 102.384C475.907 102.384 475.181 102.213 474.584 101.872C473.987 101.531 473.688 100.891 473.688 99.952C473.688 98.7573 473.987 97.392 474.584 95.856C475.181 94.32 475.864 92.8267 476.632 91.376C477.4 89.84 478.083 88.6027 478.68 87.664C475.693 90.8213 472.579 93.808 469.336 96.624C467.715 97.9893 465.923 99.2693 463.96 100.464C461.997 101.659 459.907 102.256 457.688 102.256C456.835 102.256 456.237 102 455.896 101.488C455.555 100.891 455.384 100.208 455.384 99.44C455.384 99.0133 455.427 98.7147 455.512 98.544C455.939 95.216 457.005 91.76 458.712 88.176C460.419 84.592 462.509 81.2213 464.984 78.064C467.459 74.9067 469.976 72.3467 472.536 70.384C474.499 68.9333 476.376 68.0373 478.168 67.696C479.96 67.2693 481.923 67.056 484.056 67.056H488.28C489.645 64.752 491.053 62.192 492.504 59.376C494.04 56.4747 495.533 53.616 496.984 50.8C498.52 47.984 499.928 45.5093 501.208 43.376C504.707 37.4027 508.547 32.624 512.728 29.04C516.995 25.456 521.731 23.664 526.936 23.664C528.045 23.664 529.069 24.0053 530.008 24.688C530.947 25.2853 531.373 26.224 531.288 27.504L531.032 32.112C531.032 32.1973 530.947 32.3253 530.776 32.496C530.605 32.5813 530.477 32.624 530.392 32.624C530.307 32.624 530.179 32.5387 530.008 32.368C529.752 30.832 528.984 29.68 527.704 28.912C526.424 28.0587 524.845 27.632 522.968 27.632C522.371 27.632 521.688 27.6747 520.92 27.76C520.237 27.8453 519.555 28.016 518.872 28.272C516.483 29.1253 514.221 30.8747 512.088 33.52C509.955 36.08 507.651 39.4933 505.176 43.76C504.323 45.3813 503.213 47.5147 501.848 50.16C500.483 52.72 499.032 55.4933 497.496 58.48C496.045 61.4667 494.637 64.368 493.272 67.184C491.992 70 490.883 72.3893 489.944 74.352C489.517 75.376 488.792 76.9547 487.768 79.088C486.744 81.136 485.635 83.3973 484.44 85.872C483.331 88.2613 482.349 90.48 481.496 92.528C480.728 94.576 480.344 96.0267 480.344 96.88C480.344 98.0747 480.856 98.672 481.88 98.672C482.904 98.672 484.269 98.0747 485.976 96.88C487.683 95.6 489.432 94.064 491.224 92.272C493.101 90.3947 494.765 88.6027 496.216 86.896C497.752 85.1893 498.819 83.9093 499.416 83.056C499.672 83.312 499.8 83.6107 499.8 83.952C499.8 84.5493 499.544 85.1467 499.032 85.744C498.605 86.3413 498.221 86.8533 497.88 87.28C496.344 89.328 494.424 91.5467 492.12 93.936C489.901 96.24 487.469 98.2453 484.824 99.952C482.179 101.573 479.491 102.384 476.76 102.384ZM462.936 97.904C463.96 97.904 465.368 97.1787 467.16 95.728C469.037 94.192 471.043 92.3147 473.176 90.096C475.309 87.792 477.315 85.4027 479.192 82.928C481.069 80.368 482.605 78.064 483.8 76.016C485.08 73.8827 485.72 72.2613 485.72 71.152C485.72 70.2133 485.421 69.5733 484.824 69.232C484.312 68.8907 483.629 68.72 482.776 68.72C481.411 68.72 479.917 69.232 478.296 70.256C476.76 71.1947 475.523 72.1333 474.584 73.072C473.56 74.0107 472.323 75.504 470.872 77.552C469.507 79.5147 468.141 81.6907 466.776 84.08C465.411 86.4693 464.259 88.7733 463.32 90.992C462.381 93.2107 461.912 95.0027 461.912 96.368C461.912 97.392 462.253 97.904 462.936 97.904ZM504.273 103.024C500.774 103.024 498.342 102.341 496.977 100.976C495.612 99.6107 494.929 97.9467 494.929 95.984C494.929 93.5093 495.569 90.864 496.849 88.048C498.214 85.232 499.494 82.8427 500.689 80.88C502.054 78.832 503.889 76.6987 506.193 74.48C508.497 72.2613 511.014 70.384 513.745 68.848C516.476 67.312 519.121 66.544 521.681 66.544C523.9 66.544 525.436 67.0987 526.289 68.208C527.142 69.232 527.569 70.4693 527.569 71.92C527.569 74.5653 526.758 76.7413 525.137 78.448C523.601 80.1547 521.681 81.5627 519.377 82.672C517.073 83.696 514.854 84.5493 512.721 85.232C511.441 85.5733 509.948 85.9147 508.241 86.256C506.534 86.5973 504.913 86.768 503.377 86.768C502.78 88.304 502.31 89.7973 501.969 91.248C501.628 92.6987 501.457 94.0213 501.457 95.216C501.457 96.6667 501.798 97.8613 502.481 98.8C503.249 99.7387 504.486 100.208 506.193 100.208C506.876 100.208 507.686 100.123 508.625 99.952C509.564 99.7813 510.588 99.5253 511.697 99.184C514.257 98.3307 516.774 96.9653 519.249 95.088C521.724 93.2107 523.985 91.2053 526.033 89.072C528.166 86.8533 529.788 85.0187 530.897 83.568C531.153 83.824 531.281 84.1227 531.281 84.464C531.281 84.8907 530.982 85.5733 530.385 86.512C528.678 88.9013 526.46 91.376 523.729 93.936C520.998 96.496 517.969 98.672 514.641 100.464C511.313 102.171 507.857 103.024 504.273 103.024ZM504.401 84.208C505.51 84.2933 506.748 84.2933 508.113 84.208C509.564 84.0373 510.972 83.7387 512.337 83.312C515.836 82.288 518.353 80.6667 519.889 78.448C521.51 76.144 522.321 74.096 522.321 72.304C522.321 71.28 522.108 70.4267 521.681 69.744C521.254 69.0613 520.572 68.72 519.633 68.72C517.158 68.72 514.94 69.6587 512.977 71.536C511.014 73.328 509.308 75.4187 507.857 77.808C506.406 80.1973 505.254 82.3307 504.401 84.208ZM529.62 103.92C529.279 103.92 529.279 103.536 529.62 102.768C530.047 102 530.431 101.147 530.772 100.208C531.199 99.2693 531.625 98.2453 532.052 97.136C532.905 95.088 533.844 92.784 534.868 90.224C535.892 87.664 536.873 85.1893 537.812 82.8C538.751 80.3253 539.561 78.2347 540.244 76.528C541.012 74.736 541.524 73.584 541.78 73.072C540.585 74.352 539.135 75.9733 537.428 77.936C535.807 79.8133 534.271 81.648 532.82 83.44C531.369 85.232 530.26 86.64 529.492 87.664C529.236 88.0053 529.023 88.176 528.852 88.176C528.681 88.176 528.596 87.9627 528.596 87.536C528.596 86.8533 528.809 86.2133 529.236 85.616C530.857 83.568 532.649 81.264 534.612 78.704C536.66 76.144 538.495 73.7973 540.116 71.664C541.737 69.4453 542.761 67.9947 543.188 67.312C544.127 67.1413 545.492 66.8853 547.284 66.544C549.161 66.2027 550.441 65.7333 551.124 65.136C551.38 64.88 551.636 64.752 551.892 64.752C552.063 64.752 552.148 64.9227 552.148 65.264C552.233 65.52 552.148 65.8187 551.892 66.16C551.38 66.7573 550.484 68.1653 549.204 70.384C548.009 72.5173 546.687 74.9067 545.236 77.552C543.871 80.1973 542.591 82.5867 541.396 84.72C542.42 83.3547 543.529 82.032 544.724 80.752C545.919 79.472 547.071 78.2347 548.18 77.04C549.204 76.016 550.612 74.736 552.404 73.2C554.196 71.664 556.073 70.256 558.036 68.976C559.999 67.696 561.705 66.9707 563.156 66.8C563.497 66.7147 563.796 66.672 564.052 66.672C564.393 66.672 564.649 66.672 564.82 66.672C566.697 66.672 567.636 67.3547 567.636 68.72C567.636 69.744 567.081 71.1093 565.972 72.816C565.375 73.7547 564.436 75.3333 563.156 77.552C561.961 79.6853 560.724 82.032 559.444 84.592C558.249 87.0667 557.183 89.4133 556.244 91.632C555.391 93.7653 554.964 95.344 554.964 96.368C554.964 97.5627 555.561 98.16 556.756 98.16C558.207 98.16 559.785 97.4347 561.492 95.984C563.284 94.5333 565.204 92.6987 567.252 90.48C569.3 88.176 571.348 85.744 573.396 83.184C573.567 83.3547 573.652 83.6533 573.652 84.08C573.652 84.6773 573.439 85.2747 573.012 85.872C572.671 86.384 572.329 86.8533 571.988 87.28C571.135 88.3893 569.983 89.7973 568.532 91.504C567.167 93.1253 565.759 94.7467 564.308 96.368C562.857 97.904 561.535 99.1413 560.34 100.08C559.487 100.677 558.377 101.317 557.012 102C555.647 102.683 554.281 103.024 552.916 103.024C551.38 103.024 550.313 102.64 549.716 101.872C549.119 101.019 548.82 99.9947 548.82 98.8C548.82 97.4347 549.076 95.984 549.588 94.448C550.1 92.912 550.655 91.4613 551.252 90.096C551.935 88.6453 552.447 87.5787 552.788 86.896C554.324 83.9093 555.732 81.0933 557.012 78.448C558.292 75.8027 559.188 73.9253 559.7 72.816C559.956 72.304 560.084 71.8773 560.084 71.536C560.084 70.9387 559.615 70.896 558.676 71.408C557.737 71.92 556.585 72.688 555.22 73.712C553.94 74.736 552.745 75.76 551.636 76.784C550.527 77.7227 549.801 78.3627 549.46 78.704C546.303 82.032 543.529 85.744 541.14 89.84C538.836 93.8507 536.873 97.9893 535.252 102.256C534.143 102.341 533.033 102.64 531.924 103.152C530.815 103.664 530.047 103.92 529.62 103.92ZM342.784 306.544C339.541 306.544 336.171 305.819 332.672 304.368C329.259 303.003 326.827 300.784 325.376 297.712C324.779 296.603 324.395 295.408 324.224 294.128C324.139 292.933 324.096 291.739 324.096 290.544V289.136C324.096 288.453 324.181 287.813 324.352 287.216C324.523 286.704 324.949 286.448 325.632 286.448C325.803 286.448 325.888 286.533 325.888 286.704C325.888 287.216 325.845 287.728 325.76 288.24C325.675 288.752 325.632 289.307 325.632 289.904C325.632 293.829 326.869 296.816 329.344 298.864C331.904 300.912 335.061 301.936 338.816 301.936C344.192 301.936 349.141 300.613 353.664 297.968C358.187 295.323 362.283 291.696 365.952 287.088C369.536 282.651 372.437 278.299 374.656 274.032C376.96 269.851 378.965 265.584 380.672 261.232C382.379 256.88 384.128 252.4 385.92 247.792C383.701 251.12 380.629 254.192 376.704 257.008C372.779 259.739 368.512 261.915 363.904 263.536C359.381 265.243 354.987 266.096 350.72 266.096C346.197 266.096 341.931 265.285 337.92 263.664C333.995 262.128 330.837 259.781 328.448 256.624C326.059 253.467 324.864 249.499 324.864 244.72C324.864 239.173 325.931 233.755 328.064 228.464C330.197 223.173 333.056 218.267 336.64 213.744C340.224 209.136 344.235 205.168 348.672 201.84C352.597 198.853 357.12 196.421 362.24 194.544C367.445 192.667 372.608 191.728 377.728 191.728C379.861 191.728 381.867 191.899 383.744 192.24C385.621 192.496 387.541 193.093 389.504 194.032C391.211 194.8 392.576 195.781 393.6 196.976C394.624 198.085 395.136 199.365 395.136 200.816C395.136 200.987 395.136 201.2 395.136 201.456C395.136 201.712 395.093 201.925 395.008 202.096C394.667 203.461 393.856 205.04 392.576 206.832C391.381 208.539 390.443 210.331 389.76 212.208C389.675 212.549 389.205 212.848 388.352 213.104C387.499 213.275 387.157 213.189 387.328 212.848C388.011 211.739 388.523 210.373 388.864 208.752C389.291 207.131 389.504 205.509 389.504 203.888C389.504 202.693 389.376 201.584 389.12 200.56C388.949 199.451 388.608 198.512 388.096 197.744C387.243 196.208 385.92 195.141 384.128 194.544C382.336 193.947 380.416 193.648 378.368 193.648C376.405 193.648 374.443 193.861 372.48 194.288C370.517 194.715 368.811 195.184 367.36 195.696C362.411 197.488 357.675 200.304 353.152 204.144C349.141 207.643 345.557 211.696 342.4 216.304C339.328 220.912 336.896 225.648 335.104 230.512C333.312 235.376 332.416 240.027 332.416 244.464C332.416 248.987 333.269 252.656 334.976 255.472C336.768 258.288 339.115 260.379 342.016 261.744C344.917 263.024 348.032 263.664 351.36 263.664C358.272 263.664 364.331 262.085 369.536 258.928C374.827 255.685 379.307 251.461 382.976 246.256C386.645 241.051 389.461 235.461 391.424 229.488H378.24C377.216 229.488 375.808 229.573 374.016 229.744C372.224 229.829 370.389 230.128 368.512 230.64C366.635 231.067 365.056 231.792 363.776 232.816C362.496 233.84 361.856 235.248 361.856 237.04C361.856 237.637 361.941 238.277 362.112 238.96C362.283 239.557 362.411 240.027 362.496 240.368L361.344 241.136C360.747 240.027 360.021 238.875 359.168 237.68C358.4 236.4 357.973 235.376 357.888 234.608C357.803 233.925 357.845 233.029 358.016 231.92C358.187 230.811 358.741 229.829 359.68 228.976C360.704 228.037 362.155 227.44 364.032 227.184C365.995 226.843 368 226.672 370.048 226.672C371.925 226.672 373.717 226.757 375.424 226.928C377.131 227.013 378.496 227.056 379.52 227.056H403.84L402.432 228.592C401.237 228.592 399.915 228.805 398.464 229.232C397.013 229.573 395.819 230.341 394.88 231.536C393.003 233.925 391.552 236.613 390.528 239.6C389.589 242.587 388.608 245.744 387.584 249.072C385.877 255.131 384.213 261.061 382.592 266.864C380.971 272.752 378.795 278.299 376.064 283.504C373.419 288.795 369.536 293.659 364.416 298.096C361.685 300.4 358.272 302.363 354.176 303.984C350.08 305.691 346.283 306.544 342.784 306.544ZM415.51 262.384C414.657 262.384 413.931 262.213 413.334 261.872C412.737 261.531 412.438 260.891 412.438 259.952C412.438 258.757 412.737 257.392 413.334 255.856C413.931 254.32 414.614 252.827 415.382 251.376C416.15 249.84 416.833 248.603 417.43 247.664C414.443 250.821 411.329 253.808 408.086 256.624C406.465 257.989 404.673 259.269 402.71 260.464C400.747 261.659 398.657 262.256 396.438 262.256C395.585 262.256 394.987 262 394.646 261.488C394.305 260.891 394.134 260.208 394.134 259.44C394.134 259.013 394.177 258.715 394.262 258.544C394.689 255.216 395.755 251.76 397.462 248.176C399.169 244.592 401.259 241.221 403.734 238.064C406.209 234.907 408.726 232.347 411.286 230.384C414.187 228.165 417.387 227.056 420.886 227.056H435.606C436.033 227.056 436.246 227.227 436.246 227.568C436.246 228.251 435.862 228.592 435.094 228.592C434.241 228.592 433.387 229.147 432.534 230.256C431.681 231.28 431.041 232.133 430.614 232.816C430.017 233.755 429.078 235.333 427.798 237.552C426.518 239.771 425.195 242.203 423.83 244.848C422.55 247.408 421.441 249.797 420.502 252.016C419.563 254.235 419.094 255.856 419.094 256.88C419.094 258.075 419.691 258.672 420.886 258.672C422.166 258.672 423.617 258.075 425.238 256.88C426.859 255.685 428.481 254.235 430.102 252.528C431.809 250.736 433.345 248.987 434.71 247.28C436.161 245.488 437.313 244.08 438.166 243.056C438.678 243.568 438.635 244.293 438.038 245.232C437.526 246.085 437.057 246.768 436.63 247.28C434.923 249.499 432.961 251.803 430.742 254.192C428.523 256.496 426.091 258.459 423.446 260.08C420.886 261.616 418.241 262.384 415.51 262.384ZM401.686 257.904C402.71 257.904 404.118 257.179 405.91 255.728C407.787 254.192 409.793 252.315 411.926 250.096C414.059 247.792 416.065 245.403 417.942 242.928C419.819 240.368 421.355 238.064 422.55 236.016C423.83 233.883 424.47 232.261 424.47 231.152C424.47 230.213 424.171 229.573 423.574 229.232C423.062 228.891 422.379 228.72 421.526 228.72C420.161 228.72 418.667 229.232 417.046 230.256C415.51 231.195 414.273 232.133 413.334 233.072C412.31 234.011 411.073 235.504 409.622 237.552C408.257 239.515 406.891 241.691 405.526 244.08C404.161 246.469 403.009 248.773 402.07 250.992C401.131 253.211 400.662 255.003 400.662 256.368C400.662 257.392 401.003 257.904 401.686 257.904ZM440.847 262.384C439.994 262.384 439.268 262.213 438.671 261.872C438.074 261.531 437.775 260.891 437.775 259.952C437.775 258.757 438.074 257.349 438.671 255.728C439.354 254.107 440.079 252.485 440.847 250.864C441.615 249.243 442.255 247.92 442.767 246.896C443.194 246.128 443.748 244.933 444.431 243.312C445.199 241.605 445.967 239.856 446.735 238.064C447.588 236.187 448.271 234.608 448.783 233.328C449.38 232.048 449.679 231.408 449.679 231.408C448.911 232.261 447.887 233.456 446.607 234.992C445.412 236.528 444.09 238.149 442.639 239.856C441.274 241.477 439.994 243.013 438.799 244.464C437.69 245.915 436.879 246.981 436.367 247.664C436.111 248.005 435.898 248.176 435.727 248.176C435.556 248.176 435.471 247.963 435.471 247.536C435.471 246.853 435.684 246.213 436.111 245.616C437.135 244.336 438.372 242.8 439.823 241.008C441.274 239.131 442.724 237.253 444.175 235.376C445.711 233.499 447.034 231.835 448.143 230.384C447.46 230.384 446.564 230.427 445.455 230.512C444.431 230.597 443.492 230.725 442.639 230.896C441.786 230.981 441.316 231.024 441.231 231.024C440.804 231.024 440.847 230.683 441.359 230C441.871 229.317 442.554 228.635 443.407 227.952C444.26 227.269 444.9 226.928 445.327 226.928C445.412 226.928 446.095 226.971 447.375 227.056C448.655 227.056 449.594 227.056 450.191 227.056C451.898 224.752 453.562 222.107 455.183 219.12C456.89 216.133 458.554 212.848 460.175 209.264C460.858 209.179 462.01 208.709 463.631 207.856C465.338 206.917 466.66 205.979 467.599 205.04C468.026 204.613 468.367 204.4 468.623 204.4C469.135 204.4 469.135 204.741 468.623 205.424C468.026 206.107 467.002 207.557 465.551 209.776C464.1 211.909 462.479 214.512 460.687 217.584C458.895 220.571 457.188 223.728 455.567 227.056H465.935C466.874 227.056 467.343 227.184 467.343 227.44C467.343 227.781 466.703 228.123 465.423 228.464C463.972 228.891 462.436 229.147 460.815 229.232C459.279 229.317 457.828 229.488 456.463 229.744C455.183 230 454.244 230.555 453.647 231.408C453.135 232.005 452.41 233.285 451.471 235.248C450.532 237.211 449.508 239.472 448.399 242.032C447.375 244.507 446.479 247.024 445.711 249.584C444.943 252.059 444.474 254.149 444.303 255.856V256.368C444.303 257.051 444.516 257.605 444.943 258.032C445.37 258.459 445.796 258.672 446.223 258.672C447.332 258.672 448.74 257.989 450.447 256.624C452.239 255.259 454.074 253.637 455.951 251.76C457.828 249.797 459.45 248.005 460.815 246.384C461.412 245.701 461.924 245.061 462.351 244.464C462.863 243.867 463.162 243.483 463.247 243.312C463.418 243.653 463.503 243.909 463.503 244.08C463.503 244.592 463.332 245.147 462.991 245.744C462.735 246.341 462.436 246.853 462.095 247.28C460.474 249.413 458.511 251.675 456.207 254.064C453.903 256.368 451.428 258.331 448.783 259.952C446.223 261.573 443.578 262.384 440.847 262.384ZM468.398 263.024C464.899 263.024 462.467 262.341 461.102 260.976C459.737 259.611 459.054 257.947 459.054 255.984C459.054 253.509 459.694 250.864 460.974 248.048C462.339 245.232 463.619 242.843 464.814 240.88C466.179 238.832 468.014 236.699 470.318 234.48C472.622 232.261 475.139 230.384 477.87 228.848C480.601 227.312 483.246 226.544 485.806 226.544C488.025 226.544 489.561 227.099 490.414 228.208C491.267 229.232 491.694 230.469 491.694 231.92C491.694 234.565 490.883 236.741 489.262 238.448C487.726 240.155 485.806 241.563 483.502 242.672C481.198 243.696 478.979 244.549 476.846 245.232C475.566 245.573 474.073 245.915 472.366 246.256C470.659 246.597 469.038 246.768 467.502 246.768C466.905 248.304 466.435 249.797 466.094 251.248C465.753 252.699 465.582 254.021 465.582 255.216C465.582 256.667 465.923 257.861 466.606 258.8C467.374 259.739 468.611 260.208 470.318 260.208C471.001 260.208 471.811 260.123 472.75 259.952C473.689 259.781 474.713 259.525 475.822 259.184C478.382 258.331 480.899 256.965 483.374 255.088C485.849 253.211 488.11 251.205 490.158 249.072C492.291 246.853 493.913 245.019 495.022 243.568C495.278 243.824 495.406 244.123 495.406 244.464C495.406 244.891 495.107 245.573 494.51 246.512C492.803 248.901 490.585 251.376 487.854 253.936C485.123 256.496 482.094 258.672 478.766 260.464C475.438 262.171 471.982 263.024 468.398 263.024ZM468.526 244.208C469.635 244.293 470.873 244.293 472.238 244.208C473.689 244.037 475.097 243.739 476.462 243.312C479.961 242.288 482.478 240.667 484.014 238.448C485.635 236.144 486.446 234.096 486.446 232.304C486.446 231.28 486.233 230.427 485.806 229.744C485.379 229.061 484.697 228.72 483.758 228.72C481.283 228.72 479.065 229.659 477.102 231.536C475.139 233.328 473.433 235.419 471.982 237.808C470.531 240.197 469.379 242.331 468.526 244.208Z" fill="white"/>
</svg>
